<?xml version="1.0" standalone="no"?><!DOCTYPE svg PUBLIC "-//W3C//DTD SVG 1.1//EN" "http://www.w3.org/Graphics/SVG/1.1/DTD/svg11.dtd"><svg t="1712322849678" class="icon" viewBox="0 0 1024 1024" version="1.1" xmlns="http://www.w3.org/2000/svg" p-id="4405" xmlns:xlink="http://www.w3.org/1999/xlink" width="200" height="200"><path d="M503.222857 36.571429v34.048c86.966857 7.606857 134.217143 109.750857 141.824 306.468571v102.144H503.222857v56.722286h141.824v85.138285c-3.803429 245.869714-51.053714 370.688-141.824 374.528V1024c170.203429-15.177143 264.777143-177.846857 283.684572-488.045714C768 225.755429 673.426286 59.282286 503.222857 36.571429z" fill="#1296db" p-id="4406"></path><path d="M503.222857 36.571429h-0.036571C329.142857 59.245714 234.569143 225.718857 219.428571 535.954286 234.569143 846.189714 329.142857 1008.859429 503.186286 1024v-28.379429c-94.610286-3.766857-141.897143-128.621714-141.897143-374.528v-85.138285h141.897143v-56.722286H361.325714V377.051429c3.803429-196.754286 51.090286-298.898286 141.897143-306.468572v-34.011428z" fill="#1296db" p-id="4407"></path></svg>